#N canvas 484 177 774 558 10;
#X obj 111 252 launchpad 1;
#X obj 43 252 buffer2d;
#X msg 43 42 select default;
#X msg 43 62 select buf2;
#X msg 43 82 select buf3;
#X obj 43 291 route default buf2 buf3;
#X obj 62 225 r \$0.buf;
#X obj 208 425 list prepend 3 3;
#X obj 31 425 list prepend 3 3;
#X obj 378 40 hsl 128 15 0 48 0 0 empty empty empty -2 -8 0 10 -262144
-1 -1 3969 1;
#X obj 43 182 s \$0.buf;
#X obj 375 78 s \$0.buf;
#X obj 379 176 s \$0.buf;
#X msg 379 136 3 0;
#X obj 380 247 s \$0.buf;
#X msg 380 207 0 3;
#X obj 208 291 print buffer2d_OUT;
#X obj 32 397 route2 center button;
#X msg 288 318 0 0;
#X msg 324 315 3 3;
#X msg 359 317 3 0;
#X msg 393 317 0 3;
#X obj 392 408 s \$0.col;
#X obj 135 424 r \$0.col;
#X obj 313 426 r \$0.col;
#X obj 31 471 s \$0.buf;
#X obj 209 397 route2 center button;
#X obj 210 471 s \$0.buf;
#X msg 375 58 scroll _cur center 0 \$1;
#X msg 43 102 set _cur center 0 0 3 0 \, set _cur center 0 1 0 3;
#X msg 43 122 set _cur center 0 0 3 0 \, set _cur center 2 2 3 3;
#X msg 43 142 set _cur center 1 0 0 3 \, set _cur center 2 0 3 3;
#X msg 33 447 set _cur center \$3 \$4 \$1 \$2;
#X msg 210 447 set _cur center \$3 \$4 \$1 \$2;
#X msg 379 156 set _cur top 8 0 \$1 \$2 \, set _cur top 8 1 \$1 \$2
;
#X msg 380 227 set _cur right 0 8 \$1 \$2 \, set _cur right 1 8 \$1
\$2;
#X msg 43 162 clear _cur;
#X connect 0 0 1 1;
#X connect 1 0 5 0;
#X connect 1 0 16 0;
#X connect 1 1 0 0;
#X connect 2 0 10 0;
#X connect 3 0 10 0;
#X connect 4 0 10 0;
#X connect 5 0 17 0;
#X connect 5 1 26 0;
#X connect 6 0 1 0;
#X connect 7 0 33 0;
#X connect 8 0 32 0;
#X connect 9 0 28 0;
#X connect 13 0 34 0;
#X connect 15 0 35 0;
#X connect 17 0 8 0;
#X connect 18 0 22 0;
#X connect 19 0 22 0;
#X connect 20 0 22 0;
#X connect 21 0 22 0;
#X connect 23 0 8 1;
#X connect 24 0 7 1;
#X connect 26 0 7 0;
#X connect 28 0 11 0;
#X connect 29 0 10 0;
#X connect 30 0 10 0;
#X connect 31 0 10 0;
#X connect 32 0 25 0;
#X connect 33 0 27 0;
#X connect 34 0 12 0;
#X connect 35 0 14 0;
#X connect 36 0 10 0;
