#N canvas 632 22 460 354 10;
#X obj 304 30 inlet;
#X obj 98 204 outlet;
#X obj 49 156 route list;
#X obj 49 134 pyext bufferedlaunchpad BufferedLaunchpadPd;
#X obj 49 287 midiout;
#X obj 88 260 f \$1;
#X obj 88 233 loadbang;
#X msg 350 97 midi \$1;
#X obj 350 74 spigot;
#X obj 383 52 == \$1;
#X obj 350 30 midiin;
#X obj 49 178 route midi buffer;
#X connect 0 0 3 1;
#X connect 2 0 11 0;
#X connect 3 0 2 0;
#X connect 5 0 4 1;
#X connect 6 0 5 0;
#X connect 7 0 3 1;
#X connect 8 0 7 0;
#X connect 9 0 8 1;
#X connect 10 0 8 0;
#X connect 10 1 9 0;
#X connect 11 0 4 0;
#X connect 11 1 1 0;
