#N canvas 632 22 450 300 10;
#X obj 79 124 pyext buffer2d buffer2d;
#X obj 146 52 inlet;
#X obj 214 52 inlet;
#X obj 79 266 outlet;
#X obj 146 176 outlet;
#X obj 146 146 route list;
#X obj 259 129 loadbang;
#X msg 259 159 reset;
#X obj 79 236 route list;
#X obj 214 79 route list;
#X obj 79 205 list prepend buffer;
#X obj 146 79 route list;
#X connect 0 0 10 0;
#X connect 0 1 5 0;
#X connect 1 0 11 0;
#X connect 2 0 9 0;
#X connect 5 0 4 0;
#X connect 6 0 7 0;
#X connect 7 0 4 0;
#X connect 8 0 3 0;
#X connect 9 0 0 2;
#X connect 9 1 0 2;
#X connect 10 0 8 0;
#X connect 11 0 0 1;
#X connect 11 1 0 1;
