#N canvas 346 119 386 217 10;
#X obj 125 90 hsl 128 15 0 48 0 0 \$0.scrollx \$0.foo X_SCROLL -2 -8
0 10 -262144 -1 -1 0 1;
#X obj 36 88 bng 15 250 50 0 \$0.clear \$0.foo CLEAR 17 7 0 10 -262144
-1 -1;
#X text 27 22 A simple drawing application demonstraing the use of
[launchpad] and [buffer2d].;
#N canvas 729 71 467 449 stuff 0;
#X obj 62 25 r \$0.buf;
#X obj 11 185 list prepend 3 3;
#X obj 211 82 s \$0.buf;
#X obj 115 184 r \$0.col;
#X obj 11 231 s \$0.buf;
#X obj 42 271 loadbang;
#X msg 45 365 set default top 8 \$1 \$2 \$3;
#X obj 45 430 s \$0.buf;
#X msg 210 212 3 0;
#X msg 241 215 3 3;
#X msg 272 214 0 3;
#X msg 302 212 1 0;
#X msg 334 212 1 1;
#X msg 368 212 0 1;
#X obj 213 247 s \$0.col;
#X msg 405 210 0 0;
#X msg 44 331 0 3 0 \, 1 3 3 \, 2 0 3 \, 3 1 0 \, 4 1 1 \, 5 0 1 \,
6 0 0 \, 7 0 0;
#X obj 211 182 select 0 1 2 3 4 5 6 7;
#X obj 42 293 t b b;
#X msg 211 62 scroll default center 0 \$1;
#X msg 13 207 set default center \$3 \$4 \$1 \$2;
#X msg 236 394 3 0;
#X obj 235 416 s \$0.col;
#X msg 236 368 clear default \, select default;
#X obj 104 272 r \$0.clear;
#X obj 210 40 r \$0.scrollx;
#X obj 43 52 bufferedlaunchpad 1;
#X obj 44 95 route default;
#X obj 211 121 route top;
#X obj 211 141 route button;
#X obj 211 161 route 8;
#X obj 12 138 route center;
#X obj 12 158 route button;
#X connect 0 0 26 0;
#X connect 1 0 20 0;
#X connect 3 0 1 1;
#X connect 5 0 18 0;
#X connect 6 0 7 0;
#X connect 8 0 14 0;
#X connect 9 0 14 0;
#X connect 10 0 14 0;
#X connect 11 0 14 0;
#X connect 12 0 14 0;
#X connect 13 0 14 0;
#X connect 15 0 14 0;
#X connect 16 0 6 0;
#X connect 17 0 8 0;
#X connect 17 1 9 0;
#X connect 17 2 10 0;
#X connect 17 3 11 0;
#X connect 17 4 12 0;
#X connect 17 5 13 0;
#X connect 17 6 15 0;
#X connect 17 7 15 0;
#X connect 18 0 16 0;
#X connect 18 1 23 0;
#X connect 18 1 21 0;
#X connect 19 0 2 0;
#X connect 20 0 4 0;
#X connect 21 0 22 0;
#X connect 23 0 7 0;
#X connect 24 0 18 0;
#X connect 25 0 19 0;
#X connect 26 0 27 0;
#X connect 27 0 28 0;
#X connect 27 0 31 0;
#X connect 28 0 29 0;
#X connect 29 0 30 0;
#X connect 30 0 17 0;
#X connect 31 0 32 0;
#X connect 32 0 1 0;
#X restore 37 136 pd stuff;
