#N canvas 68 327 445 399 10;
#X obj 31 107 inlet;
#X obj 31 181 pyext launchkey LaunchkeyPd;
#X obj 129 238 outlet;
#X msg 85 104 midi \$1;
#X obj 70 348 f \$1;
#X obj 119 282 f \$2;
#X obj 70 326 loadbang;
#X obj 119 260 loadbang;
#X obj 31 370 midiout;
#X obj 80 304 midiout;
#X msg 160 104 cmidi \$1;
#X obj 160 76 spigot;
#X obj 193 51 == \$2;
#X obj 85 76 spigot;
#X obj 118 51 == \$1;
#X msg 237 104 extendedmode 1;
#X obj 237 76 loadbang;
#X obj 160 28 midiin;
#X obj 85 28 midiin;
#X obj 129 207 route list;
#X obj 43 142 route list;
#X connect 0 0 20 0;
#X connect 1 0 8 0;
#X connect 1 1 9 0;
#X connect 1 2 19 0;
#X connect 3 0 1 1;
#X connect 4 0 8 1;
#X connect 5 0 9 1;
#X connect 6 0 4 0;
#X connect 7 0 5 0;
#X connect 10 0 1 1;
#X connect 11 0 10 0;
#X connect 12 0 11 1;
#X connect 13 0 3 0;
#X connect 14 0 13 1;
#X connect 15 0 1 1;
#X connect 16 0 15 0;
#X connect 17 0 11 0;
#X connect 17 1 12 0;
#X connect 18 0 13 0;
#X connect 18 1 14 0;
#X connect 19 0 2 0;
#X connect 19 1 2 0;
#X connect 20 0 1 1;
#X connect 20 1 1 1;
