#N canvas 74 49 386 428 10;
#X obj 220 40 inlet;
#X obj 61 174 pyext launchpad LaunchpadPd;
#X msg 254 137 midi \$1;
#X obj 61 348 midiout;
#X obj 100 321 f \$1;
#X obj 100 294 loadbang;
#X obj 254 114 spigot;
#X obj 287 92 == \$1;
#X obj 254 70 midiin;
#X obj 61 196 route list;
#X obj 61 218 route midi;
#X obj 118 252 outlet;
#X connect 0 0 1 1;
#X connect 1 0 9 0;
#X connect 2 0 1 1;
#X connect 4 0 3 1;
#X connect 5 0 4 0;
#X connect 6 0 2 0;
#X connect 7 0 6 1;
#X connect 8 0 6 0;
#X connect 8 1 7 0;
#X connect 9 0 10 0;
#X connect 10 0 3 0;
#X connect 10 1 11 0;
