#N canvas 638 274 595 346 10;
#X msg 206 161 getrow 0 \$1;
#X obj 205 128 hradio 15 1 0 8 empty empty empty 0 -8 0 10 -262144
-1 -1 0;
#X obj 174 241 print;
#X msg 178 69 setrow 0 0 23 45 66 \, setrow 0 1 23 45 67 \, setrow
0 5 11 11 55 \, setlength 0 8;
#X msg 20 81 setcurrentpattern \$1;
#X obj 19 55 hradio 15 1 0 8 empty empty empty 0 -8 0 10 -262144 -1
-1 0;
#X msg 304 161 tick;
#X obj 357 160 metro 100;
#X obj 357 127 tgl 15 0 empty empty empty 17 7 0 10 -262144 -1 -1 0
1;
#X msg 135 21 setrow 1 0 100 \, setrow 1 4 200 \, setrow 1 8 300 \,
setrow 1 12 400;
#X obj 174 201 patterns;
#X floatatom 222 239 5 0 0 0 - - -, f 5;
#X obj 227 275 sel 0;
#X connect 0 0 10 0;
#X connect 1 0 0 0;
#X connect 3 0 10 0;
#X connect 4 0 10 0;
#X connect 5 0 4 0;
#X connect 6 0 10 0;
#X connect 7 0 6 0;
#X connect 8 0 7 0;
#X connect 9 0 10 0;
#X connect 10 0 2 0;
#X connect 10 1 11 0;
#X connect 10 1 12 0;
