#N canvas 475 35 450 300 10;
#X obj 41 33 inlet;
#X obj 41 55 route \$1;
#X obj 41 77 route \$2;
#X obj 41 99 route \$3;
#X obj 41 121 outlet;
#X connect 0 0 1 0;
#X connect 1 0 2 0;
#X connect 2 0 3 0;
#X connect 3 0 4 0;
