#N canvas 400 229 699 417 10;
#X obj 51 247 route pos output;
#X obj 51 220 sequencer;
#X obj 262 197 loadbang;
#X text 325 199 initialize with a ready to play setup;
#N canvas 0 22 307 202 position 0;
#X obj 107 69 unpack f f;
#X floatatom 107 121 5 0 0 0 - - -, f 5;
#X floatatom 164 121 5 0 0 0 - - -, f 5;
#X obj 107 36 inlet;
#X connect 0 0 1 0;
#X connect 0 1 2 0;
#X connect 3 0 0 0;
#X coords 0 -1 1 1 100 40 1 100 100;
#X restore 51 310 pd position;
#X obj 51 194 r seq;
#X obj 51 40 nbx 5 20 1 240 0 1 empty empty empty 0 -8 0 16 -262144
-1 -1 126 256;
#X msg 51 67 \; seq setbeatsperminute \$1;
#X msg 51 107 \; seq start;
#X msg 124 107 \; seq stop;
#X msg 272 251 \; seq songset 0 \$1 0 \, setlength \$1 0 8;
#X msg 272 224 0 \, 1 \, 2 \, 3 \, 4 \, 5 \, 6 \, 7;
#X msg 262 291 \; seq songsetlength 1 \, songsetrowduration 0 16;
#X obj 97 278 xnoten-8tracks 8 4;
#X connect 0 0 4 0;
#X connect 0 1 13 0;
#X connect 1 0 0 0;
#X connect 2 0 12 0;
#X connect 2 0 11 0;
#X connect 5 0 1 0;
#X connect 6 0 7 0;
#X connect 11 0 10 0;
