#N canvas 251 165 699 417 10;
#X obj 82 40 tgl 40 0 empty empty Start/stop 42 30 0 18 -262144 -1
-1 0 1;
#X obj 81 257 route pos output;
#N canvas 321 40 885 313 midiout 0;
#X obj 57 50 route 0 1 2 3 4 5 6 7, f 134;
#X obj 112 247 midiout;
#X msg 754 230 4;
#X obj 749 203 loadbang;
#X obj 57 85 xnote8 0;
#X obj 157 85 xnote8 1;
#X obj 257 85 xnote8 2;
#X obj 357 85 xnote8 3;
#X obj 457 85 xnote8 4;
#X obj 557 85 xnote8 5;
#X obj 657 85 xnote8 6;
#X obj 757 85 xnote8 7;
#X obj 55 19 inlet;
#X connect 0 0 4 0;
#X connect 0 1 5 0;
#X connect 0 2 6 0;
#X connect 0 3 7 0;
#X connect 0 4 8 0;
#X connect 0 5 9 0;
#X connect 0 6 10 0;
#X connect 0 7 11 0;
#X connect 2 0 1 1;
#X connect 3 0 2 0;
#X connect 4 0 1 0;
#X connect 5 0 1 0;
#X connect 6 0 1 0;
#X connect 7 0 1 0;
#X connect 8 0 1 0;
#X connect 9 0 1 0;
#X connect 10 0 1 0;
#X connect 11 0 1 0;
#X connect 12 0 0 0;
#X restore 127 288 pd midiout;
#N canvas 0 22 450 300 metronome 0;
#X obj 151 124 sel 1;
#X msg 112 157 rewind;
#X msg 49 157 tick;
#X obj 49 210 outlet;
#X obj 49 30 inlet;
#X obj 49 124 metro 125;
#X obj 49 67 t f f f;
#X obj 112 124 sel 0;
#X connect 0 0 1 0;
#X connect 1 0 3 0;
#X connect 2 0 3 0;
#X connect 4 0 6 0;
#X connect 5 0 2 0;
#X connect 6 0 7 0;
#X connect 6 1 5 0;
#X connect 6 2 0 0;
#X connect 7 0 1 0;
#X restore 81 115 pd metronome;
#X obj 81 196 sequencer;
#X obj 262 197 loadbang;
#X text 325 199 initialize with a ready to play setup;
#N canvas 0 22 307 202 position 0;
#X obj 107 69 unpack f f;
#X floatatom 107 121 5 0 0 0 - - -, f 5;
#X floatatom 164 121 5 0 0 0 - - -, f 5;
#X obj 107 36 inlet;
#X connect 0 0 1 0;
#X connect 0 1 2 0;
#X connect 3 0 0 0;
#X coords 0 -1 1 1 100 40 1 100 100;
#X restore 81 320 pd position;
#X obj 97 164 r seq;
#X msg 262 260 \; seq songsetrow 0 0 0 0 0 0 0 0 0 \, songsetlength
1 \, songsetrowduration 0 128 \, setlength 0 0 8 \, setlength 1 0 8
\, setlength 2 0 8 \, setlength 3 0 8 \, setlength 4 0 8 \, setlength
5 0 8 \, setlength 6 0 8 \, setlength 7 0 8;
#X connect 0 0 3 0;
#X connect 1 0 7 0;
#X connect 1 1 2 0;
#X connect 3 0 4 0;
#X connect 4 0 1 0;
#X connect 5 0 9 0;
#X connect 8 0 4 0;
