#N canvas 438 291 450 300 10;
#X obj 85 97 pyext sequencer_pd IO;
#X obj 86 36 inlet;
#X obj 140 35 inlet;
#X obj 188 35 inlet;
#X obj 67 214 outlet;
#X obj 149 217 outlet;
#X obj 226 216 outlet;
#X obj 73 162 route list;
#X obj 134 136 route list;
#X obj 211 159 route list;
#X connect 0 0 7 0;
#X connect 0 1 8 0;
#X connect 0 2 9 0;
#X connect 1 0 0 1;
#X connect 2 0 0 2;
#X connect 3 0 0 3;
#X connect 7 0 4 0;
#X connect 8 0 5 0;
#X connect 9 0 6 0;
