#N canvas 546 164 714 530 10;
#N canvas 22 277 607 441 sequencer-and-devices 0;
#X obj 56 252 sequencer;
#X obj 263 91 buffer2d;
#X obj 266 226 launchpad 1;
#X obj 391 226 launchkey 2 3;
#X obj 263 42 r \$0.launchpad.buf.in;
#X obj 263 140 s \$0.launchpad.buf.out;
#X obj 266 265 s \$0.launchpad.out;
#X obj 266 187 r \$0.launchpad.in;
#X obj 391 265 s \$0.launchkey.out;
#X obj 391 187 r \$0.launchkey.in;
#X obj 314 115 s \$0.launchpad.in;
#X obj 314 66 r \$0.launchpad.out;
#X obj 81 323 s \$0.launchpad.buf.in;
#X obj 81 188 r \$0.launchpad.buf.out;
#X obj 107 218 r \$0.launchkey.out;
#X obj 107 289 s \$0.launchkey.in;
#X obj 56 142 r \$0.seq.in;
#X obj 56 371 s \$0.seq.out;
#N canvas 0 22 450 300 metronome 0;
#X obj 49 67 t f f;
#X obj 117 95 sel 1;
#X msg 117 157 rewind;
#X msg 49 157 tick;
#X obj 49 210 outlet;
#X obj 49 30 inlet;
#X obj 49 124 metro 125;
#X connect 0 0 6 0;
#X connect 0 1 1 0;
#X connect 1 0 2 0;
#X connect 2 0 4 0;
#X connect 3 0 4 0;
#X connect 5 0 0 0;
#X connect 6 0 3 0;
#X restore 60 64 pd metronome;
#X obj 60 96 s \$0.seq.in;
#X obj 60 33 r \$0.metro.in;
#X connect 0 0 17 0;
#X connect 0 1 12 0;
#X connect 0 2 15 0;
#X connect 1 0 5 0;
#X connect 1 1 10 0;
#X connect 2 0 6 0;
#X connect 3 0 8 0;
#X connect 4 0 1 0;
#X connect 7 0 2 0;
#X connect 9 0 3 0;
#X connect 11 0 1 1;
#X connect 13 0 0 1;
#X connect 14 0 0 2;
#X connect 16 0 0 0;
#X connect 18 0 19 0;
#X connect 20 0 18 0;
#X restore 221 67 pd sequencer-and-devices;
#X msg 469 47 tick;
#X msg 29 70 getrow 0 0 \$1;
#X msg 29 43 0 \, 1 \, 2 \, 3 \, 4 \, 5 \, 6 \, 7;
#X msg 428 37 dump;
#X msg 542 90 songsetrow 0 0 \, songsetlength 1 \, setrowduration 0
32;
#X obj 224 40 tgl 15 0 \$0.metro.in \$0.metro.toggle.in Start/stop_metronome
17 7 0 10 -262144 -1 -1 0 1;
#X obj 428 82 s \$0.seq.in;
#X obj 542 148 s \$0.seq.in;
#X obj 29 97 s \$0.seq.in;
#X obj 76 142 r \$0.seq.out;
#X msg 542 36 set 0 0 4 0 4 \, set 0 0 6 0 0;
#X msg 542 63 set 0 0 4 0 -1 \, set 0 0 6 0 -1;
#X obj 81 175 route list;
#X obj 81 197 route pos output;
#X obj 81 219 unpack f f;
#X floatatom 81 241 5 0 0 0 - - -, f 5;
#X floatatom 138 241 5 0 0 0 - - -, f 5;
#X obj 190 235 route 0 1 2 3 4 5 6 7;
#X obj 190 263 unpack f f f f f f f f;
#X msg 432 148 setlength 0 0 8;
#X msg 432 176 clear 0 0;
#X obj 245 432 midiout;
#X msg 315 393 4;
#X obj 310 366 loadbang;
#X obj 190 295 xnote;
#X obj 319 315 xnote;
#X obj 208 315 xnote;
#X obj 226 295 xnote;
#X obj 245 315 xnote;
#X obj 263 295 xnote;
#X obj 282 315 xnote;
#X obj 300 295 xnote;
#X msg 430 241 setspeedreduction 0 0 1;
#X connect 1 0 7 0;
#X connect 2 0 9 0;
#X connect 3 0 2 0;
#X connect 4 0 7 0;
#X connect 5 0 8 0;
#X connect 10 0 13 0;
#X connect 11 0 8 0;
#X connect 12 0 8 0;
#X connect 13 0 14 0;
#X connect 14 0 15 0;
#X connect 14 1 18 0;
#X connect 15 0 16 0;
#X connect 15 1 17 0;
#X connect 18 0 19 0;
#X connect 19 0 25 0;
#X connect 19 1 27 0;
#X connect 19 2 28 0;
#X connect 19 3 29 0;
#X connect 19 4 30 0;
#X connect 19 5 31 0;
#X connect 19 6 32 0;
#X connect 19 7 26 0;
#X connect 20 0 8 0;
#X connect 21 0 8 0;
#X connect 23 0 22 1;
#X connect 24 0 23 0;
#X connect 25 0 22 0;
#X connect 26 0 22 0;
#X connect 27 0 22 0;
#X connect 28 0 22 0;
#X connect 29 0 22 0;
#X connect 30 0 22 0;
#X connect 31 0 22 0;
#X connect 32 0 22 0;
#X connect 33 0 8 0;
