#N canvas 327 84 901 471 10;
#X msg 469 47 tick;
#X msg 29 70 getrow 0 0 \$1;
#X msg 29 43 0 \, 1 \, 2 \, 3 \, 4 \, 5 \, 6 \, 7;
#X msg 428 37 dump;
#X msg 542 90 songsetrow 0 0 \, songsetlength 1 \, setrowduration 0
32;
#X obj 224 40 tgl 15 0 \$0.metro.in \$0.metro.toggle.in Start/stop_metronome
17 7 0 10 -262144 -1 -1 0 1;
#X obj 428 82 s \$0.seq.in;
#X obj 542 148 s \$0.seq.in;
#X obj 29 97 s \$0.seq.in;
#X obj 76 142 r \$0.seq.out;
#X msg 542 36 set 0 0 4 0 4 \, set 0 0 6 0 0;
#X msg 542 63 set 0 0 4 0 -1 \, set 0 0 6 0 -1;
#X obj 81 175 route list;
#X obj 81 197 route pos output;
#X obj 81 239 unpack f f;
#X floatatom 81 261 5 0 0 0 - - -, f 5;
#X floatatom 138 261 5 0 0 0 - - -, f 5;
#X msg 432 148 setlength 0 0 8;
#X msg 432 176 clear 0 0;
#X msg 430 241 setspeedreduction 0 0 1;
#N canvas 0 22 885 313 midiout 0;
#X obj 57 50 route 0 1 2 3 4 5 6 7, f 134;
#X obj 112 247 midiout;
#X msg 754 230 4;
#X obj 749 203 loadbang;
#X obj 57 85 xnote8 0;
#X obj 157 85 xnote8 1;
#X obj 257 85 xnote8 2;
#X obj 357 85 xnote8 3;
#X obj 457 85 xnote8 4;
#X obj 557 85 xnote8 5;
#X obj 657 85 xnote8 6;
#X obj 757 85 xnote8 7;
#X obj 55 19 inlet;
#X connect 0 0 4 0;
#X connect 0 1 5 0;
#X connect 0 2 6 0;
#X connect 0 3 7 0;
#X connect 0 4 8 0;
#X connect 0 5 9 0;
#X connect 0 6 10 0;
#X connect 0 7 11 0;
#X connect 2 0 1 1;
#X connect 3 0 2 0;
#X connect 4 0 1 0;
#X connect 5 0 1 0;
#X connect 6 0 1 0;
#X connect 7 0 1 0;
#X connect 8 0 1 0;
#X connect 9 0 1 0;
#X connect 10 0 1 0;
#X connect 11 0 1 0;
#X connect 12 0 0 0;
#X restore 127 218 pd midiout;
#X obj 239 274 r \$0.seq.in;
#X obj 239 336 s \$0.seq.out;
#N canvas 0 22 450 300 metronome 0;
#X obj 151 124 sel 1;
#X msg 112 157 rewind;
#X msg 49 157 tick;
#X obj 49 210 outlet;
#X obj 49 30 inlet;
#X obj 49 124 metro 125;
#X obj 49 67 t f f f;
#X obj 112 124 sel 0;
#X connect 0 0 1 0;
#X connect 1 0 3 0;
#X connect 2 0 3 0;
#X connect 4 0 6 0;
#X connect 5 0 2 0;
#X connect 6 0 7 0;
#X connect 6 1 5 0;
#X connect 6 2 0 0;
#X connect 7 0 1 0;
#X restore 541 302 pd metronome;
#X obj 541 329 s \$0.seq.in;
#X obj 541 275 r \$0.metro.in;
#X obj 239 305 sequencer;
#X connect 0 0 6 0;
#X connect 1 0 8 0;
#X connect 2 0 1 0;
#X connect 3 0 6 0;
#X connect 4 0 7 0;
#X connect 9 0 12 0;
#X connect 10 0 7 0;
#X connect 11 0 7 0;
#X connect 12 0 13 0;
#X connect 13 0 14 0;
#X connect 13 1 20 0;
#X connect 14 0 15 0;
#X connect 14 1 16 0;
#X connect 17 0 7 0;
#X connect 18 0 7 0;
#X connect 19 0 7 0;
#X connect 21 0 26 0;
#X connect 23 0 24 0;
#X connect 25 0 23 0;
#X connect 26 0 22 0;
