#N canvas 400 229 699 417 10;
#X obj 51 200 sequencer;
#X obj 312 37 loadbang;
#X text 375 39 initialize with a ready to play setup;
#N canvas 0 22 307 202 position 0;
#X obj 107 69 unpack f f;
#X floatatom 107 121 5 0 0 0 - - -, f 5;
#X floatatom 164 121 5 0 0 0 - - -, f 5;
#X obj 107 36 inlet;
#X connect 0 0 1 0;
#X connect 0 1 2 0;
#X connect 3 0 0 0;
#X coords 0 -1 1 1 100 40 1 100 100;
#X restore 51 346 pd position;
#X obj 51 174 r seq;
#X obj 51 40 nbx 5 20 1 240 0 1 empty empty empty 0 -8 0 16 -262144
-1 -1 108 256;
#X msg 51 67 \; seq setbeatsperminute \$1;
#X msg 51 107 \; seq start;
#X msg 124 107 \; seq stop;
#X msg 322 91 \; seq songset 0 \$1 0 \, setlength \$1 0 8;
#X msg 322 64 0 \, 1 \, 2 \, 3 \, 4 \, 5 \, 6 \, 7;
#X msg 312 131 \; seq songsetlength 1 \, songsetrowduration 0 16;
#X obj 96 278 xnoten-8tracks 8 4;
#X obj 51 227 route pos output volume;
#X obj 480 330 midiout;
#X obj 525 283 loadbang;
#X obj 525 306 f 4;
#X obj 96 309 s midi;
#X obj 480 306 r midi;
#X obj 284 275 expr 176+$f1 \; $f2;
#X obj 284 313 pack f f;
#X msg 284 338 \; midi \$1 \, 7 \, \$2;
#X connect 0 0 13 0;
#X connect 1 0 11 0;
#X connect 1 0 10 0;
#X connect 4 0 0 0;
#X connect 5 0 6 0;
#X connect 10 0 9 0;
#X connect 12 0 17 0;
#X connect 13 0 3 0;
#X connect 13 1 12 0;
#X connect 13 2 19 0;
#X connect 15 0 16 0;
#X connect 16 0 14 1;
#X connect 18 0 14 0;
#X connect 19 0 20 0;
#X connect 19 1 20 1;
#X connect 20 0 21 0;
