#N canvas 598 295 299 261 10;
#X obj 23 80 pyext sequencer_pd IO 1 2 3 4;
#X obj 194 14 midiin;
#X obj 194 36 pack;
#X msg 194 58 midi \$2 \$1;
#X obj 23 102 route list;
#X obj 23 124 route midi;
#X obj 23 168 unpack f f;
#X msg 23 146 \$2 \$1;
#X obj 23 190 midiout;
#X obj 80 146 outlet;
#X obj 157 36 inlet;
#X connect 0 0 4 0;
#X connect 1 0 2 0;
#X connect 1 1 2 1;
#X connect 2 0 3 0;
#X connect 3 0 0 1;
#X connect 4 0 5 0;
#X connect 5 0 7 0;
#X connect 5 1 9 0;
#X connect 6 0 8 0;
#X connect 6 1 8 1;
#X connect 7 0 6 0;
#X connect 10 0 0 1;
