#N canvas 200 258 349 375 10;
#X obj 23 90 pyext sequencer_pd IO 1 2 3 4;
#X obj 252 218 midiin;
#X obj 252 250 pack;
#X msg 252 282 midi \$2 \$1;
#X obj 23 122 route list;
#X obj 23 282 unpack f f;
#X msg 23 250 \$2 \$1;
#X obj 23 314 midiout;
#X obj 23 26 inlet;
#X msg 252 134 init;
#X obj 252 102 loadbang;
#X obj 23 154 route midi delaytick;
#X obj 140 186 outlet;
#X obj 81 186 delay;
#X msg 81 218 delayedtick;
#X obj 194 58 r \$0.in;
#X obj 252 314 s \$0.in;
#X obj 252 166 s \$0.in;
#X obj 81 250 s \$0.in;
#X obj 23 58 s \$0.in;
#X connect 0 0 4 0;
#X connect 1 0 2 0;
#X connect 1 1 2 1;
#X connect 2 0 3 0;
#X connect 3 0 16 0;
#X connect 4 0 11 0;
#X connect 5 0 7 0;
#X connect 5 1 7 1;
#X connect 6 0 5 0;
#X connect 8 0 19 0;
#X connect 9 0 17 0;
#X connect 10 0 9 0;
#X connect 11 0 6 0;
#X connect 11 1 13 0;
#X connect 11 2 12 0;
#X connect 13 0 14 0;
#X connect 14 0 18 0;
#X connect 15 0 0 1;
