#N canvas 527 108 661 555 10;
#X obj 133 53 launchkey 2 3;
#X obj 106 300 launchpad 1;
#X msg 246 354 reset;
#X obj 109 347 print;
#X obj 241 228 route list;
#X obj 241 250 route button;
#X obj 241 272 route 8;
#X obj 241 294 route 0;
#X obj 241 316 select 1;
#X msg 313 355 setled \$1 \$2 0 3;
#X obj 398 401 pack f f f f;
#X msg 407 437 setled \$1 \$2 \$3 \$4;
#X obj 384 196 t b b b b;
#X obj 391 55 tgl 15 0 empty empty empty 17 7 0 10 -262144 -1 -1 1
1;
#X obj 395 476 print;
#X obj 377 246 random 8;
#X obj 436 292 random 3;
#X obj 467 316 random 3;
#X obj 386 99 metro 10;
#X obj 408 267 random 9;
#X obj 220 127 tgl 15 0 empty empty empty 17 7 0 10 -262144 -1 -1 1
1;
#X msg 435 136 bang \, bang \, bang \, bang \, bang;
#X obj 215 171 metro 50;
#X obj 111 412 route control;
#X obj 111 434 route 7;
#X obj 111 496 + 5;
#X obj 115 467 * 100;
#X connect 1 0 3 0;
#X connect 1 0 4 0;
#X connect 2 0 1 0;
#X connect 4 0 5 0;
#X connect 4 0 23 0;
#X connect 5 0 6 0;
#X connect 5 0 9 0;
#X connect 6 0 7 0;
#X connect 7 0 8 0;
#X connect 8 0 2 0;
#X connect 9 0 1 0;
#X connect 10 0 11 0;
#X connect 11 0 1 0;
#X connect 11 0 14 0;
#X connect 12 0 15 0;
#X connect 12 1 19 0;
#X connect 12 2 16 0;
#X connect 12 3 17 0;
#X connect 13 0 18 0;
#X connect 15 0 10 0;
#X connect 16 0 10 2;
#X connect 17 0 10 3;
#X connect 18 0 21 0;
#X connect 19 0 10 1;
#X connect 20 0 22 0;
#X connect 21 0 12 0;
#X connect 22 0 2 0;
#X connect 23 0 24 0;
#X connect 24 0 26 0;
#X connect 25 0 22 1;
#X connect 26 0 25 0;
