#N canvas 156 159 457 451 10;
#X obj 43 35 inlet;
#X obj 43 79 moses 0;
#X obj 97 79 moses 1;
#X obj 167 208 f;
#X obj 167 229 spigot 0;
#X obj 94 417 outlet;
#X obj 167 251 t b f;
#X msg 212 206 0;
#X msg 212 185 1;
#X obj 136 134 t f b b;
#X obj 43 103 sel -1;
#X obj 212 67 t b;
#X obj 212 40 inlet reset;
#X obj 136 106 + 0;
#X obj 89 228 + 144;
#X obj 219 329 + 128;
#X obj 219 305 f \$1;
#X obj 41 253 pack f f;
#X msg 59 285 \$2 \, \$1 \, 100;
#X obj 174 356 pack f f;
#X msg 159 380 \$2 \, \$1 \, 0;
#X obj 43 172 t f b;
#X obj 89 204 f \$1;
#X obj 194 279 t f b;
#X connect 0 0 1 0;
#X connect 1 0 10 0;
#X connect 1 1 2 0;
#X connect 2 1 13 0;
#X connect 3 0 4 0;
#X connect 4 0 6 0;
#X connect 6 0 7 0;
#X connect 6 1 23 0;
#X connect 7 0 4 1;
#X connect 8 0 4 1;
#X connect 9 0 3 1;
#X connect 9 0 21 0;
#X connect 9 1 8 0;
#X connect 9 2 3 0;
#X connect 10 0 3 0;
#X connect 11 0 7 0;
#X connect 12 0 11 0;
#X connect 13 0 9 0;
#X connect 14 0 17 1;
#X connect 15 0 19 1;
#X connect 16 0 15 0;
#X connect 17 0 18 0;
#X connect 18 0 5 0;
#X connect 19 0 20 0;
#X connect 20 0 5 0;
#X connect 21 0 17 0;
#X connect 21 1 22 0;
#X connect 22 0 14 0;
#X connect 23 0 19 0;
#X connect 23 1 16 0;
