#N canvas 0 22 696 304 10;
#X obj 57 67 unpack f f f f f f f f, f 88;
#X obj 57 38 inlet;
#X obj 57 99 xnote \$1;
#X obj 132 99 xnote \$1;
#X obj 57 170 outlet;
#X obj 207 99 xnote \$1;
#X obj 282 99 xnote \$1;
#X obj 357 99 xnote \$1;
#X obj 432 99 xnote \$1;
#X obj 507 99 xnote \$1;
#X obj 582 99 xnote \$1;
#X connect 0 0 2 0;
#X connect 0 1 3 0;
#X connect 0 2 5 0;
#X connect 0 3 6 0;
#X connect 0 4 7 0;
#X connect 0 5 8 0;
#X connect 0 6 9 0;
#X connect 0 7 10 0;
#X connect 1 0 0 0;
#X connect 2 0 4 0;
#X connect 3 0 4 0;
#X connect 5 0 4 0;
#X connect 6 0 4 0;
#X connect 7 0 4 0;
#X connect 8 0 4 0;
#X connect 9 0 4 0;
#X connect 10 0 4 0;
