#N canvas 0 22 933 325 10;
#X obj 57 50 route 0 1 2 3 4 5 6 7, f 134;
#X obj 112 247 midiout;
#X obj 749 203 loadbang;
#X obj 55 19 inlet;
#X obj 57 85 xnoten \$1 0;
#X obj 157 85 xnoten \$1 1;
#X obj 257 85 xnoten \$1 2;
#X obj 357 85 xnoten \$1 3;
#X obj 457 85 xnoten \$1 4;
#X obj 557 85 xnoten \$1 5;
#X obj 657 85 xnoten \$1 6;
#X obj 757 85 xnoten \$1 7;
#X obj 754 230 f \$2;
#X connect 0 0 4 0;
#X connect 0 1 5 0;
#X connect 0 2 6 0;
#X connect 0 3 7 0;
#X connect 0 4 8 0;
#X connect 0 5 9 0;
#X connect 0 6 10 0;
#X connect 0 7 11 0;
#X connect 2 0 12 0;
#X connect 3 0 0 0;
#X connect 4 0 1 0;
#X connect 5 0 1 0;
#X connect 6 0 1 0;
#X connect 7 0 1 0;
#X connect 8 0 1 0;
#X connect 9 0 1 0;
#X connect 10 0 1 0;
#X connect 11 0 1 0;
#X connect 12 0 1 1;
