#N canvas 156 159 457 451 10;
#X obj 43 35 inlet;
#X obj 43 79 moses 0;
#X obj 97 79 moses 1;
#X obj 167 208 f;
#X obj 167 229 spigot 0;
#X msg 167 280 128 \, \$1 \, 0;
#X msg 73 252 144 \, \$1 \, 100;
#X obj 87 342 outlet;
#X obj 167 251 t b f;
#X msg 212 206 0;
#X msg 212 185 1;
#X obj 136 134 t f b b;
#X obj 43 103 sel -1;
#X obj 212 67 t b;
#X obj 212 40 inlet reset;
#X obj 136 106 + 0;
#X connect 0 0 1 0;
#X connect 1 0 12 0;
#X connect 1 1 2 0;
#X connect 2 1 15 0;
#X connect 3 0 4 0;
#X connect 4 0 8 0;
#X connect 5 0 7 0;
#X connect 6 0 7 0;
#X connect 8 0 9 0;
#X connect 8 1 5 0;
#X connect 9 0 4 1;
#X connect 10 0 4 1;
#X connect 11 0 6 0;
#X connect 11 0 3 1;
#X connect 11 1 10 0;
#X connect 11 2 3 0;
#X connect 12 0 3 0;
#X connect 13 0 9 0;
#X connect 14 0 13 0;
#X connect 15 0 11 0;
