#N canvas 268 205 930 447 10;
#X obj 21 31 namecanvas \$0.cnv;
#N canvas 435 22 600 615 create-objects 0;
#X obj 400 441 loadbang;
#X obj 400 475 f \$0;
#X obj 400 501 makefilename %d.cnv;
#X obj 379 530 send;
#X msg 362 114 \$1 f;
#X obj 362 410 list trim;
#X obj 399 299 list append;
#X obj 362 343 list;
#X obj 362 148 unpack f s;
#X obj 399 263 symbol;
#X obj 432 341 t a;
#X obj 389 233 until;
#X obj 389 199 - 1;
#X obj 362 172 t b f;
#X msg 191 388 obj \$1 150 xnote \$2;
#X obj 191 297 f;
#X obj 191 229 t f b;
#X msg 236 263 0;
#X obj 191 263 until;
#X obj 216 297 + 1;
#X obj 35 303 f;
#X obj 35 235 t f b;
#X obj 35 269 until;
#X obj 60 303 + 1;
#X msg 80 269 0;
#X obj 35 341 t f f;
#X obj 35 404 pack f f;
#X obj 185 74 t f f b f;
#X msg 234 117 connect 2 0 4 0;
#X obj 74 372 + 5;
#X msg 35 451 connect 4 \$1 \$2 0 \, connect \$2 0 3 0;
#X obj 185 48 f \$1;
#X obj 185 24 loadbang;
#X obj 191 357 pack f \$2;
#X obj 362 377 list prepend obj 20 100 unpack;
#X obj 191 327 expr $f1*100+20;
#X connect 0 0 1 0;
#X connect 1 0 2 0;
#X connect 2 0 3 1;
#X connect 4 0 8 0;
#X connect 5 0 3 0;
#X connect 6 0 10 0;
#X connect 6 0 7 1;
#X connect 7 0 34 0;
#X connect 8 0 13 0;
#X connect 8 1 6 1;
#X connect 8 1 9 1;
#X connect 9 0 6 0;
#X connect 10 0 6 1;
#X connect 11 0 9 0;
#X connect 12 0 11 0;
#X connect 13 0 7 0;
#X connect 13 1 12 0;
#X connect 14 0 3 0;
#X connect 15 0 19 0;
#X connect 15 0 35 0;
#X connect 16 0 18 0;
#X connect 16 1 17 0;
#X connect 17 0 15 1;
#X connect 18 0 15 0;
#X connect 19 0 15 1;
#X connect 20 0 23 0;
#X connect 20 0 25 0;
#X connect 21 0 22 0;
#X connect 21 1 24 0;
#X connect 22 0 20 0;
#X connect 23 0 20 1;
#X connect 24 0 20 1;
#X connect 25 0 26 0;
#X connect 25 1 29 0;
#X connect 26 0 30 0;
#X connect 27 0 21 0;
#X connect 27 1 16 0;
#X connect 27 2 28 0;
#X connect 27 3 4 0;
#X connect 28 0 3 0;
#X connect 29 0 26 1;
#X connect 30 0 3 0;
#X connect 31 0 27 0;
#X connect 32 0 31 0;
#X connect 33 0 14 0;
#X connect 34 0 5 0;
#X connect 35 0 33 0;
#X restore 21 51 pd create-objects;
#X obj 21 71 inlet;
#X obj 23 233 outlet;
